{"title":"Fall Out Boy - The Phoenix [Music Video] 720p [Sbyky]","uid":10127580,"size":42030485,"categoryP":"video","categoryS":"music_videos","magnet":"?xt=urn:btih:724da6bb14a412ae8d60bfb47e1e7499ec9eab06&amp;dn=Fall+Out+Boy+-+The+Phoenix+%5BMusic+Video%5D+720p+%5BSbyky%5D&amp;tr=udp%3A%2F%2Ftracker.openbittorrent.com%3A80&amp;tr=udp%3A%2F%2Fopen.demonii.com%3A1337&amp;tr=udp%3A%2F%2Ftracker.coppersurfer.tk%3A6969&amp;tr=udp%3A%2F%2Fexodus.desync.com%3A6969","seeders":1,"leechers":3,"uploader":"Sbyky","files":1,"time":1399795821,"description":"\n\nGeneral\nComplete name                            : Fall Out Boy - The Phoenix [Music Video] 720p [Sbyky].mp4\nFormat                                   : MPEG-4\nFormat profile                           : Base Media\nCodec ID                                 : isom\nFile size                                : 40.1 MiB\nDuration                                 : 4mn 22s\nOverall bit rate mode                    : Variable\nOverall bit rate                         : 1 280 Kbps\nEncoded date                             : UTC 2013-11-27 00:54:23\nTagged date                              : UTC 2013-11-27 00:54:23\n\nVideo\nID                                       : 1\nFormat                                   : AVC\nFormat/Info                              : Advanced Video Codec\nFormat profile                           : &lt;a class=&quot;__cf_email__&quot; href=&quot;/cdn-cgi/l/email-protection&quot; data-cfemail=&quot;286549414668641b0619&quot;&gt;[email&amp;#160;protected]&lt;/a&gt;&lt;script cf-hash='f9e31' type=&quot;text/javascript&quot;&gt;\n/* &lt;![CDATA[ */!function(){try{var t=&quot;currentScript&quot;in document?document.currentScript:function(){for(var t=document.getElementsByTagName(&quot;script&quot;),e=t.length;e--;)if(t[e].getAttribute(&quot;cf-hash&quot;))return t[e]}();if(t&amp;&amp;t.previousSibling){var e,r,n,i,c=t.previousSibling,a=c.getAttribute(&quot;data-cfemail&quot;);if(a){for(e=&quot;&quot;,r=parseInt(a.substr(0,2),16),n=2;a.length-n;n+=2)i=parseInt(a.substr(n,2),16)^r,e+=String.fromCharCode(i);e=document.createTextNode(e),c.parentNode.replaceChild(e,c)}}}catch(u){}}();/* ]]&gt; */&lt;/script&gt;\nFormat settings, CABAC                   : Yes\nFormat settings, ReFrames                : 3 frames\nCodec ID                                 : avc1\nCodec ID/Info                            : Advanced Video Coding\nDuration                                 : 4mn 22s\nBit rate                                 : 1 151 Kbps\nWidth                                    : 1 280 pixels\nHeight                                   : 720 pixels\nDisplay aspect ratio                     : 16:9\nFrame rate mode                          : Constant\nFrame rate                               : 23.976 fps\nColor space                              : YUV\nChroma subsampling                       : 4:2:0\nBit depth                                : 8 bits\nScan type                                : Progressive\nBits/(Pixel*Frame)                       : 0.052\nStream size                              : 36.0 MiB (90%)\nEncoded date                             : UTC 2013-11-27 00:54:23\nTagged date                              : UTC 2013-11-27 00:54:23\n\nAudio\nID                                       : 2\nFormat                                   : AAC\nFormat/Info                              : Advanced Audio Codec\nFormat profile                           : LC\nCodec ID                                 : 40\nDuration                                 : 4mn 22s\nBit rate mode                            : Variable\nBit rate                                 : 126 Kbps\nChannel(s)                               : 2 channels\nChannel positions                        : Front: L R\nSampling rate                            : 44.1 KHz\nCompression mode                         : Lossy\nStream size                              : 3.93 MiB (10%)\nEncoded date                             : UTC 2013-11-27 00:53:57\nTagged date                              : UTC 2013-11-27 00:53:57\n\nShared By Sbyky\n","torrent":{"xt":"urn:btih:724da6bb14a412ae8d60bfb47e1e7499ec9eab06","amp;dn":"Fall+Out+Boy+-+The+Phoenix+%5BMusic+Video%5D+720p+%5BSbyky%5D","amp;tr":["udp%3A%2F%2Ftracker.openbittorrent.com%3A80","udp%3A%2F%2Fopen.demonii.com%3A1337","udp%3A%2F%2Ftracker.coppersurfer.tk%3A6969","udp%3A%2F%2Fexodus.desync.com%3A6969"],"infoHash":"724da6bb14a412ae8d60bfb47e1e7499ec9eab06","infoHashBuffer":{"type":"Buffer","data":[114,77,166,187,20,164,18,174,141,96,191,180,126,30,116,153,236,158,171,6]},"announce":[],"urlList":[]}}